<mxfile host="app.diagrams.net" modified="2021-03-26T10:48:49.983Z" agent="5.0 (Windows)" etag="JQKZFAFwCgh5Y4UN7bXr" version="14.4.9" type="github">
  <diagram id="C5RBs43oDa-KdzZeNtuy" name="Page-1">
    <mxGraphModel dx="1002" dy="683" grid="1" gridSize="10" guides="1" tooltips="1" connect="1" arrows="1" fold="1" page="1" pageScale="1" pageWidth="827" pageHeight="1169" math="0" shadow="0">
      <root>
        <mxCell id="WIyWlLk6GJQsqaUBKTNV-0" />
        <mxCell id="WIyWlLk6GJQsqaUBKTNV-1" parent="WIyWlLk6GJQsqaUBKTNV-0" />
        <mxCell id="Bsu9NjQxNURBnWHIHruh-143" style="edgeStyle=orthogonalEdgeStyle;rounded=0;orthogonalLoop=1;jettySize=auto;html=1;startArrow=none;startFill=0;endArrow=classicThin;endFill=1;" edge="1" parent="WIyWlLk6GJQsqaUBKTNV-1" source="Bsu9NjQxNURBnWHIHruh-85" target="Bsu9NjQxNURBnWHIHruh-0">
          <mxGeometry relative="1" as="geometry" />
        </mxCell>
        <mxCell id="Bsu9NjQxNURBnWHIHruh-0" value="Database" style="swimlane;fontStyle=1;align=center;verticalAlign=top;childLayout=stackLayout;horizontal=1;startSize=26;horizontalStack=0;resizeParent=1;resizeParentMax=0;resizeLast=0;collapsible=1;marginBottom=0;direction=east;" vertex="1" collapsed="1" parent="WIyWlLk6GJQsqaUBKTNV-1">
          <mxGeometry x="30" y="140" width="90" height="26" as="geometry">
            <mxRectangle x="100" y="110" width="160" height="112" as="alternateBounds" />
          </mxGeometry>
        </mxCell>
        <mxCell id="Bsu9NjQxNURBnWHIHruh-1" value="+ field: db_connection" style="text;strokeColor=none;fillColor=none;align=left;verticalAlign=top;spacingLeft=4;spacingRight=4;overflow=hidden;rotatable=0;points=[[0,0.5],[1,0.5]];portConstraint=eastwest;" vertex="1" parent="Bsu9NjQxNURBnWHIHruh-0">
          <mxGeometry y="26" width="90" height="26" as="geometry" />
        </mxCell>
        <mxCell id="Bsu9NjQxNURBnWHIHruh-4" value="+ field: engine" style="text;strokeColor=none;fillColor=none;align=left;verticalAlign=top;spacingLeft=4;spacingRight=4;overflow=hidden;rotatable=0;points=[[0,0.5],[1,0.5]];portConstraint=eastwest;" vertex="1" parent="Bsu9NjQxNURBnWHIHruh-0">
          <mxGeometry y="52" width="90" height="26" as="geometry" />
        </mxCell>
        <mxCell id="Bsu9NjQxNURBnWHIHruh-2" value="" style="line;strokeWidth=1;fillColor=none;align=left;verticalAlign=middle;spacingTop=-1;spacingLeft=3;spacingRight=3;rotatable=0;labelPosition=right;points=[];portConstraint=eastwest;" vertex="1" parent="Bsu9NjQxNURBnWHIHruh-0">
          <mxGeometry y="78" width="90" height="8" as="geometry" />
        </mxCell>
        <mxCell id="Bsu9NjQxNURBnWHIHruh-3" value="+ import_df(self,dataframe,name):" style="text;strokeColor=none;fillColor=none;align=left;verticalAlign=top;spacingLeft=4;spacingRight=4;overflow=hidden;rotatable=0;points=[[0,0.5],[1,0.5]];portConstraint=eastwest;" vertex="1" parent="Bsu9NjQxNURBnWHIHruh-0">
          <mxGeometry y="86" width="90" height="26" as="geometry" />
        </mxCell>
        <mxCell id="Bsu9NjQxNURBnWHIHruh-145" style="edgeStyle=orthogonalEdgeStyle;rounded=0;orthogonalLoop=1;jettySize=auto;html=1;startArrow=none;startFill=0;endArrow=classic;endFill=1;" edge="1" parent="WIyWlLk6GJQsqaUBKTNV-1" source="Bsu9NjQxNURBnWHIHruh-108" target="Bsu9NjQxNURBnWHIHruh-5">
          <mxGeometry relative="1" as="geometry" />
        </mxCell>
        <mxCell id="Bsu9NjQxNURBnWHIHruh-146" style="edgeStyle=orthogonalEdgeStyle;rounded=0;orthogonalLoop=1;jettySize=auto;html=1;startArrow=none;startFill=0;endArrow=classic;endFill=1;" edge="1" parent="WIyWlLk6GJQsqaUBKTNV-1" source="Bsu9NjQxNURBnWHIHruh-85" target="Bsu9NjQxNURBnWHIHruh-5">
          <mxGeometry relative="1" as="geometry">
            <Array as="points">
              <mxPoint x="280" y="240" />
            </Array>
          </mxGeometry>
        </mxCell>
        <mxCell id="Bsu9NjQxNURBnWHIHruh-147" style="edgeStyle=orthogonalEdgeStyle;rounded=0;orthogonalLoop=1;jettySize=auto;html=1;startArrow=none;startFill=0;endArrow=classic;endFill=1;" edge="1" parent="WIyWlLk6GJQsqaUBKTNV-1" source="Bsu9NjQxNURBnWHIHruh-117" target="Bsu9NjQxNURBnWHIHruh-5">
          <mxGeometry relative="1" as="geometry" />
        </mxCell>
        <mxCell id="Bsu9NjQxNURBnWHIHruh-5" value="Analysis" style="swimlane;fontStyle=1;align=center;verticalAlign=top;childLayout=stackLayout;horizontal=1;startSize=26;horizontalStack=0;resizeParent=1;resizeParentMax=0;resizeLast=0;collapsible=1;marginBottom=0;direction=east;" vertex="1" collapsed="1" parent="WIyWlLk6GJQsqaUBKTNV-1">
          <mxGeometry x="345" y="232" width="80" height="26" as="geometry">
            <mxRectangle x="370" y="110" width="160" height="528" as="alternateBounds" />
          </mxGeometry>
        </mxCell>
        <mxCell id="Bsu9NjQxNURBnWHIHruh-6" value="+ field: engine" style="text;strokeColor=none;fillColor=none;align=left;verticalAlign=top;spacingLeft=4;spacingRight=4;overflow=hidden;rotatable=0;points=[[0,0.5],[1,0.5]];portConstraint=eastwest;" vertex="1" parent="Bsu9NjQxNURBnWHIHruh-5">
          <mxGeometry y="26" width="80" height="26" as="geometry" />
        </mxCell>
        <mxCell id="Bsu9NjQxNURBnWHIHruh-7" value="+ field: dataset" style="text;strokeColor=none;fillColor=none;align=left;verticalAlign=top;spacingLeft=4;spacingRight=4;overflow=hidden;rotatable=0;points=[[0,0.5],[1,0.5]];portConstraint=eastwest;" vertex="1" parent="Bsu9NjQxNURBnWHIHruh-5">
          <mxGeometry y="52" width="80" height="26" as="geometry" />
        </mxCell>
        <mxCell id="Bsu9NjQxNURBnWHIHruh-22" value="+ field: model_id" style="text;strokeColor=none;fillColor=none;align=left;verticalAlign=top;spacingLeft=4;spacingRight=4;overflow=hidden;rotatable=0;points=[[0,0.5],[1,0.5]];portConstraint=eastwest;" vertex="1" parent="Bsu9NjQxNURBnWHIHruh-5">
          <mxGeometry y="78" width="80" height="26" as="geometry" />
        </mxCell>
        <mxCell id="Bsu9NjQxNURBnWHIHruh-12" value="+ field: seed" style="text;strokeColor=none;fillColor=none;align=left;verticalAlign=top;spacingLeft=4;spacingRight=4;overflow=hidden;rotatable=0;points=[[0,0.5],[1,0.5]];portConstraint=eastwest;" vertex="1" parent="Bsu9NjQxNURBnWHIHruh-5">
          <mxGeometry y="104" width="80" height="26" as="geometry" />
        </mxCell>
        <mxCell id="Bsu9NjQxNURBnWHIHruh-23" value="+ field: ratio" style="text;strokeColor=none;fillColor=none;align=left;verticalAlign=top;spacingLeft=4;spacingRight=4;overflow=hidden;rotatable=0;points=[[0,0.5],[1,0.5]];portConstraint=eastwest;" vertex="1" parent="Bsu9NjQxNURBnWHIHruh-5">
          <mxGeometry y="130" width="80" height="26" as="geometry" />
        </mxCell>
        <mxCell id="Bsu9NjQxNURBnWHIHruh-11" value="+ field: train" style="text;strokeColor=none;fillColor=none;align=left;verticalAlign=top;spacingLeft=4;spacingRight=4;overflow=hidden;rotatable=0;points=[[0,0.5],[1,0.5]];portConstraint=eastwest;" vertex="1" parent="Bsu9NjQxNURBnWHIHruh-5">
          <mxGeometry y="156" width="80" height="26" as="geometry" />
        </mxCell>
        <mxCell id="Bsu9NjQxNURBnWHIHruh-13" value="+ field: eval" style="text;strokeColor=none;fillColor=none;align=left;verticalAlign=top;spacingLeft=4;spacingRight=4;overflow=hidden;rotatable=0;points=[[0,0.5],[1,0.5]];portConstraint=eastwest;" vertex="1" parent="Bsu9NjQxNURBnWHIHruh-5">
          <mxGeometry y="182" width="80" height="26" as="geometry" />
        </mxCell>
        <mxCell id="Bsu9NjQxNURBnWHIHruh-81" value="+ field: target" style="text;strokeColor=none;fillColor=none;align=left;verticalAlign=top;spacingLeft=4;spacingRight=4;overflow=hidden;rotatable=0;points=[[0,0.5],[1,0.5]];portConstraint=eastwest;" vertex="1" parent="Bsu9NjQxNURBnWHIHruh-5">
          <mxGeometry y="208" width="80" height="26" as="geometry" />
        </mxCell>
        <mxCell id="Bsu9NjQxNURBnWHIHruh-82" value="+ field: catFeatures" style="text;strokeColor=none;fillColor=none;align=left;verticalAlign=top;spacingLeft=4;spacingRight=4;overflow=hidden;rotatable=0;points=[[0,0.5],[1,0.5]];portConstraint=eastwest;" vertex="1" parent="Bsu9NjQxNURBnWHIHruh-5">
          <mxGeometry y="234" width="80" height="26" as="geometry" />
        </mxCell>
        <mxCell id="Bsu9NjQxNURBnWHIHruh-83" value="+ field: numFeatures" style="text;strokeColor=none;fillColor=none;align=left;verticalAlign=top;spacingLeft=4;spacingRight=4;overflow=hidden;rotatable=0;points=[[0,0.5],[1,0.5]];portConstraint=eastwest;" vertex="1" parent="Bsu9NjQxNURBnWHIHruh-5">
          <mxGeometry y="260" width="80" height="26" as="geometry" />
        </mxCell>
        <mxCell id="Bsu9NjQxNURBnWHIHruh-84" value="+ field: bins" style="text;strokeColor=none;fillColor=none;align=left;verticalAlign=top;spacingLeft=4;spacingRight=4;overflow=hidden;rotatable=0;points=[[0,0.5],[1,0.5]];portConstraint=eastwest;" vertex="1" parent="Bsu9NjQxNURBnWHIHruh-5">
          <mxGeometry y="286" width="80" height="26" as="geometry" />
        </mxCell>
        <mxCell id="Bsu9NjQxNURBnWHIHruh-8" value="" style="line;strokeWidth=1;fillColor=none;align=left;verticalAlign=middle;spacingTop=-1;spacingLeft=3;spacingRight=3;rotatable=0;labelPosition=right;points=[];portConstraint=eastwest;" vertex="1" parent="Bsu9NjQxNURBnWHIHruh-5">
          <mxGeometry y="312" width="80" height="8" as="geometry" />
        </mxCell>
        <mxCell id="Bsu9NjQxNURBnWHIHruh-9" value="+ get_cat_feat(self)" style="text;strokeColor=none;fillColor=none;align=left;verticalAlign=top;spacingLeft=4;spacingRight=4;overflow=hidden;rotatable=0;points=[[0,0.5],[1,0.5]];portConstraint=eastwest;" vertex="1" parent="Bsu9NjQxNURBnWHIHruh-5">
          <mxGeometry y="320" width="80" height="26" as="geometry" />
        </mxCell>
        <mxCell id="Bsu9NjQxNURBnWHIHruh-15" value="+ get_num_feat(self)" style="text;strokeColor=none;fillColor=none;align=left;verticalAlign=top;spacingLeft=4;spacingRight=4;overflow=hidden;rotatable=0;points=[[0,0.5],[1,0.5]];portConstraint=eastwest;" vertex="1" parent="Bsu9NjQxNURBnWHIHruh-5">
          <mxGeometry y="346" width="80" height="26" as="geometry" />
        </mxCell>
        <mxCell id="Bsu9NjQxNURBnWHIHruh-16" value="+ drop(self)" style="text;strokeColor=none;fillColor=none;align=left;verticalAlign=top;spacingLeft=4;spacingRight=4;overflow=hidden;rotatable=0;points=[[0,0.5],[1,0.5]];portConstraint=eastwest;" vertex="1" parent="Bsu9NjQxNURBnWHIHruh-5">
          <mxGeometry y="372" width="80" height="26" as="geometry" />
        </mxCell>
        <mxCell id="Bsu9NjQxNURBnWHIHruh-17" value="+ train_test_split(self)" style="text;strokeColor=none;fillColor=none;align=left;verticalAlign=top;spacingLeft=4;spacingRight=4;overflow=hidden;rotatable=0;points=[[0,0.5],[1,0.5]];portConstraint=eastwest;" vertex="1" parent="Bsu9NjQxNURBnWHIHruh-5">
          <mxGeometry y="398" width="80" height="26" as="geometry" />
        </mxCell>
        <mxCell id="Bsu9NjQxNURBnWHIHruh-18" value="+ train_test_split(self)" style="text;strokeColor=none;fillColor=none;align=left;verticalAlign=top;spacingLeft=4;spacingRight=4;overflow=hidden;rotatable=0;points=[[0,0.5],[1,0.5]];portConstraint=eastwest;" vertex="1" parent="Bsu9NjQxNURBnWHIHruh-5">
          <mxGeometry y="424" width="80" height="26" as="geometry" />
        </mxCell>
        <mxCell id="Bsu9NjQxNURBnWHIHruh-19" value="+ rank(self,table_train,catFeatures,numFeatures,bins)" style="text;strokeColor=none;fillColor=none;align=left;verticalAlign=top;spacingLeft=4;spacingRight=4;overflow=hidden;rotatable=0;points=[[0,0.5],[1,0.5]];portConstraint=eastwest;" vertex="1" parent="Bsu9NjQxNURBnWHIHruh-5">
          <mxGeometry y="450" width="80" height="26" as="geometry" />
        </mxCell>
        <mxCell id="Bsu9NjQxNURBnWHIHruh-20" value="+ estimate(self,catFeatures,bins,numFeatures)" style="text;strokeColor=none;fillColor=none;align=left;verticalAlign=top;spacingLeft=4;spacingRight=4;overflow=hidden;rotatable=0;points=[[0,0.5],[1,0.5]];portConstraint=eastwest;" vertex="1" parent="Bsu9NjQxNURBnWHIHruh-5">
          <mxGeometry y="476" width="80" height="26" as="geometry" />
        </mxCell>
        <mxCell id="Bsu9NjQxNURBnWHIHruh-21" value="+ estimate(self,catFeatures,bins,numFeatures)" style="text;strokeColor=none;fillColor=none;align=left;verticalAlign=top;spacingLeft=4;spacingRight=4;overflow=hidden;rotatable=0;points=[[0,0.5],[1,0.5]];portConstraint=eastwest;" vertex="1" parent="Bsu9NjQxNURBnWHIHruh-5">
          <mxGeometry y="502" width="80" height="26" as="geometry" />
        </mxCell>
        <mxCell id="Bsu9NjQxNURBnWHIHruh-158" style="edgeStyle=orthogonalEdgeStyle;rounded=0;orthogonalLoop=1;jettySize=auto;html=1;startArrow=classic;startFill=1;endArrow=none;endFill=0;" edge="1" parent="WIyWlLk6GJQsqaUBKTNV-1" source="Bsu9NjQxNURBnWHIHruh-28" target="Bsu9NjQxNURBnWHIHruh-119">
          <mxGeometry relative="1" as="geometry" />
        </mxCell>
        <mxCell id="Bsu9NjQxNURBnWHIHruh-28" value="Model" style="swimlane;fontStyle=1;align=center;verticalAlign=top;childLayout=stackLayout;horizontal=1;startSize=26;horizontalStack=0;resizeParent=1;resizeParentMax=0;resizeLast=0;collapsible=1;marginBottom=0;direction=east;" vertex="1" collapsed="1" parent="WIyWlLk6GJQsqaUBKTNV-1">
          <mxGeometry x="505" y="232" width="80" height="26" as="geometry">
            <mxRectangle x="240" y="140" width="160" height="242" as="alternateBounds" />
          </mxGeometry>
        </mxCell>
        <mxCell id="Bsu9NjQxNURBnWHIHruh-29" value="+ field: analysis" style="text;strokeColor=none;fillColor=none;align=left;verticalAlign=top;spacingLeft=4;spacingRight=4;overflow=hidden;rotatable=0;points=[[0,0.5],[1,0.5]];portConstraint=eastwest;" vertex="1" parent="Bsu9NjQxNURBnWHIHruh-28">
          <mxGeometry y="26" width="80" height="26" as="geometry" />
        </mxCell>
        <mxCell id="Bsu9NjQxNURBnWHIHruh-51" value="+ field: catFeatures" style="text;strokeColor=none;fillColor=none;align=left;verticalAlign=top;spacingLeft=4;spacingRight=4;overflow=hidden;rotatable=0;points=[[0,0.5],[1,0.5]];portConstraint=eastwest;" vertex="1" parent="Bsu9NjQxNURBnWHIHruh-28">
          <mxGeometry y="52" width="80" height="26" as="geometry" />
        </mxCell>
        <mxCell id="Bsu9NjQxNURBnWHIHruh-52" value="+ field: numFeatures" style="text;strokeColor=none;fillColor=none;align=left;verticalAlign=top;spacingLeft=4;spacingRight=4;overflow=hidden;rotatable=0;points=[[0,0.5],[1,0.5]];portConstraint=eastwest;" vertex="1" parent="Bsu9NjQxNURBnWHIHruh-28">
          <mxGeometry y="78" width="80" height="26" as="geometry" />
        </mxCell>
        <mxCell id="Bsu9NjQxNURBnWHIHruh-53" value="+ field: model_id" style="text;strokeColor=none;fillColor=none;align=left;verticalAlign=top;spacingLeft=4;spacingRight=4;overflow=hidden;rotatable=0;points=[[0,0.5],[1,0.5]];portConstraint=eastwest;" vertex="1" parent="Bsu9NjQxNURBnWHIHruh-28">
          <mxGeometry y="104" width="80" height="26" as="geometry" />
        </mxCell>
        <mxCell id="Bsu9NjQxNURBnWHIHruh-54" value="+ field: bins" style="text;strokeColor=none;fillColor=none;align=left;verticalAlign=top;spacingLeft=4;spacingRight=4;overflow=hidden;rotatable=0;points=[[0,0.5],[1,0.5]];portConstraint=eastwest;" vertex="1" parent="Bsu9NjQxNURBnWHIHruh-28">
          <mxGeometry y="130" width="80" height="26" as="geometry" />
        </mxCell>
        <mxCell id="Bsu9NjQxNURBnWHIHruh-41" value="" style="line;strokeWidth=1;fillColor=none;align=left;verticalAlign=middle;spacingTop=-1;spacingLeft=3;spacingRight=3;rotatable=0;labelPosition=right;points=[];portConstraint=eastwest;" vertex="1" parent="Bsu9NjQxNURBnWHIHruh-28">
          <mxGeometry y="156" width="80" height="8" as="geometry" />
        </mxCell>
        <mxCell id="Bsu9NjQxNURBnWHIHruh-49" value="+ visualize1D(self,feature1,target)" style="text;strokeColor=none;fillColor=none;align=left;verticalAlign=top;spacingLeft=4;spacingRight=4;overflow=hidden;rotatable=0;points=[[0,0.5],[1,0.5]];portConstraint=eastwest;" vertex="1" parent="Bsu9NjQxNURBnWHIHruh-28">
          <mxGeometry y="164" width="80" height="26" as="geometry" />
        </mxCell>
        <mxCell id="Bsu9NjQxNURBnWHIHruh-58" value="+ visualize2D(self,numFeat,catFeat,target)" style="text;strokeColor=none;fillColor=none;align=left;verticalAlign=top;spacingLeft=4;spacingRight=4;overflow=hidden;rotatable=0;points=[[0,0.5],[1,0.5]];portConstraint=eastwest;" vertex="1" parent="Bsu9NjQxNURBnWHIHruh-28">
          <mxGeometry y="190" width="80" height="26" as="geometry" />
        </mxCell>
        <mxCell id="Bsu9NjQxNURBnWHIHruh-59" value="+ predict(self)" style="text;strokeColor=none;fillColor=none;align=left;verticalAlign=top;spacingLeft=4;spacingRight=4;overflow=hidden;rotatable=0;points=[[0,0.5],[1,0.5]];portConstraint=eastwest;" vertex="1" parent="Bsu9NjQxNURBnWHIHruh-28">
          <mxGeometry y="216" width="80" height="26" as="geometry" />
        </mxCell>
        <mxCell id="Bsu9NjQxNURBnWHIHruh-162" style="edgeStyle=orthogonalEdgeStyle;rounded=0;orthogonalLoop=1;jettySize=auto;html=1;startArrow=none;startFill=0;endArrow=classic;endFill=1;" edge="1" parent="WIyWlLk6GJQsqaUBKTNV-1" source="Bsu9NjQxNURBnWHIHruh-122" target="Bsu9NjQxNURBnWHIHruh-60">
          <mxGeometry relative="1" as="geometry">
            <mxPoint x="730" y="270" as="targetPoint" />
          </mxGeometry>
        </mxCell>
        <mxCell id="Bsu9NjQxNURBnWHIHruh-60" value="Prediction" style="swimlane;fontStyle=1;align=center;verticalAlign=top;childLayout=stackLayout;horizontal=1;startSize=26;horizontalStack=0;resizeParent=1;resizeParentMax=0;resizeLast=0;collapsible=1;marginBottom=0;direction=east;" vertex="1" collapsed="1" parent="WIyWlLk6GJQsqaUBKTNV-1">
          <mxGeometry x="660" y="232" width="80" height="26" as="geometry">
            <mxRectangle x="40" y="170" width="160" height="242" as="alternateBounds" />
          </mxGeometry>
        </mxCell>
        <mxCell id="Bsu9NjQxNURBnWHIHruh-61" value="+ field: model" style="text;strokeColor=none;fillColor=none;align=left;verticalAlign=top;spacingLeft=4;spacingRight=4;overflow=hidden;rotatable=0;points=[[0,0.5],[1,0.5]];portConstraint=eastwest;" vertex="1" parent="Bsu9NjQxNURBnWHIHruh-60">
          <mxGeometry y="26" width="80" height="26" as="geometry" />
        </mxCell>
        <mxCell id="Bsu9NjQxNURBnWHIHruh-62" value="+ field: eval" style="text;strokeColor=none;fillColor=none;align=left;verticalAlign=top;spacingLeft=4;spacingRight=4;overflow=hidden;rotatable=0;points=[[0,0.5],[1,0.5]];portConstraint=eastwest;" vertex="1" parent="Bsu9NjQxNURBnWHIHruh-60">
          <mxGeometry y="52" width="80" height="26" as="geometry" />
        </mxCell>
        <mxCell id="Bsu9NjQxNURBnWHIHruh-63" value="+ field: model_id" style="text;strokeColor=none;fillColor=none;align=left;verticalAlign=top;spacingLeft=4;spacingRight=4;overflow=hidden;rotatable=0;points=[[0,0.5],[1,0.5]];portConstraint=eastwest;" vertex="1" parent="Bsu9NjQxNURBnWHIHruh-60">
          <mxGeometry y="78" width="80" height="26" as="geometry" />
        </mxCell>
        <mxCell id="Bsu9NjQxNURBnWHIHruh-64" value="+ field: target" style="text;strokeColor=none;fillColor=none;align=left;verticalAlign=top;spacingLeft=4;spacingRight=4;overflow=hidden;rotatable=0;points=[[0,0.5],[1,0.5]];portConstraint=eastwest;" vertex="1" parent="Bsu9NjQxNURBnWHIHruh-60">
          <mxGeometry y="104" width="80" height="26" as="geometry" />
        </mxCell>
        <mxCell id="Bsu9NjQxNURBnWHIHruh-65" value="+ field: numFeatures" style="text;strokeColor=none;fillColor=none;align=left;verticalAlign=top;spacingLeft=4;spacingRight=4;overflow=hidden;rotatable=0;points=[[0,0.5],[1,0.5]];portConstraint=eastwest;" vertex="1" parent="Bsu9NjQxNURBnWHIHruh-60">
          <mxGeometry y="130" width="80" height="26" as="geometry" />
        </mxCell>
        <mxCell id="Bsu9NjQxNURBnWHIHruh-66" value="+ field: catFeatures" style="text;strokeColor=none;fillColor=none;align=left;verticalAlign=top;spacingLeft=4;spacingRight=4;overflow=hidden;rotatable=0;points=[[0,0.5],[1,0.5]];portConstraint=eastwest;" vertex="1" parent="Bsu9NjQxNURBnWHIHruh-60">
          <mxGeometry y="156" width="80" height="26" as="geometry" />
        </mxCell>
        <mxCell id="Bsu9NjQxNURBnWHIHruh-68" value="" style="line;strokeWidth=1;fillColor=none;align=left;verticalAlign=middle;spacingTop=-1;spacingLeft=3;spacingRight=3;rotatable=0;labelPosition=right;points=[];portConstraint=eastwest;" vertex="1" parent="Bsu9NjQxNURBnWHIHruh-60">
          <mxGeometry y="182" width="80" height="8" as="geometry" />
        </mxCell>
        <mxCell id="Bsu9NjQxNURBnWHIHruh-69" value="+ predict(self,eval)" style="text;strokeColor=none;fillColor=none;align=left;verticalAlign=top;spacingLeft=4;spacingRight=4;overflow=hidden;rotatable=0;points=[[0,0.5],[1,0.5]];portConstraint=eastwest;" vertex="1" parent="Bsu9NjQxNURBnWHIHruh-60">
          <mxGeometry y="190" width="80" height="26" as="geometry" />
        </mxCell>
        <mxCell id="Bsu9NjQxNURBnWHIHruh-70" value="+ accuracy(self)" style="text;strokeColor=none;fillColor=none;align=left;verticalAlign=top;spacingLeft=4;spacingRight=4;overflow=hidden;rotatable=0;points=[[0,0.5],[1,0.5]];portConstraint=eastwest;" vertex="1" parent="Bsu9NjQxNURBnWHIHruh-60">
          <mxGeometry y="216" width="80" height="26" as="geometry" />
        </mxCell>
        <mxCell id="Bsu9NjQxNURBnWHIHruh-142" style="edgeStyle=orthogonalEdgeStyle;rounded=0;orthogonalLoop=1;jettySize=auto;html=1;startArrow=classic;startFill=1;endArrow=none;endFill=0;" edge="1" parent="WIyWlLk6GJQsqaUBKTNV-1" source="Bsu9NjQxNURBnWHIHruh-85" target="Bsu9NjQxNURBnWHIHruh-115">
          <mxGeometry relative="1" as="geometry" />
        </mxCell>
        <mxCell id="Bsu9NjQxNURBnWHIHruh-157" style="edgeStyle=orthogonalEdgeStyle;rounded=0;orthogonalLoop=1;jettySize=auto;html=1;startArrow=none;startFill=0;endArrow=classic;endFill=1;" edge="1" parent="WIyWlLk6GJQsqaUBKTNV-1" source="Bsu9NjQxNURBnWHIHruh-85" target="Bsu9NjQxNURBnWHIHruh-28">
          <mxGeometry relative="1" as="geometry" />
        </mxCell>
        <mxCell id="Bsu9NjQxNURBnWHIHruh-161" style="edgeStyle=orthogonalEdgeStyle;rounded=0;orthogonalLoop=1;jettySize=auto;html=1;entryX=0.313;entryY=-0.013;entryDx=0;entryDy=0;entryPerimeter=0;startArrow=none;startFill=0;endArrow=classic;endFill=1;" edge="1" parent="WIyWlLk6GJQsqaUBKTNV-1" source="Bsu9NjQxNURBnWHIHruh-85" target="Bsu9NjQxNURBnWHIHruh-60">
          <mxGeometry relative="1" as="geometry" />
        </mxCell>
        <mxCell id="Bsu9NjQxNURBnWHIHruh-85" value="Utils" style="swimlane;fontStyle=1;align=center;verticalAlign=top;childLayout=stackLayout;horizontal=1;startSize=26;horizontalStack=0;resizeParent=1;resizeParentMax=0;resizeLast=0;collapsible=1;marginBottom=0;" vertex="1" collapsed="1" parent="WIyWlLk6GJQsqaUBKTNV-1">
          <mxGeometry x="250" y="140" width="60" height="26" as="geometry">
            <mxRectangle x="280" y="210" width="160" height="138" as="alternateBounds" />
          </mxGeometry>
        </mxCell>
        <mxCell id="Bsu9NjQxNURBnWHIHruh-87" value="" style="line;strokeWidth=1;fillColor=none;align=left;verticalAlign=middle;spacingTop=-1;spacingLeft=3;spacingRight=3;rotatable=0;labelPosition=right;points=[];portConstraint=eastwest;" vertex="1" parent="Bsu9NjQxNURBnWHIHruh-85">
          <mxGeometry y="26" width="60" height="8" as="geometry" />
        </mxCell>
        <mxCell id="Bsu9NjQxNURBnWHIHruh-88" value="+ set_connection(db):" style="text;strokeColor=none;fillColor=none;align=left;verticalAlign=top;spacingLeft=4;spacingRight=4;overflow=hidden;rotatable=0;points=[[0,0.5],[1,0.5]];portConstraint=eastwest;" vertex="1" parent="Bsu9NjQxNURBnWHIHruh-85">
          <mxGeometry y="34" width="60" height="26" as="geometry" />
        </mxCell>
        <mxCell id="Bsu9NjQxNURBnWHIHruh-89" value="+ get_connection(engine):" style="text;strokeColor=none;fillColor=none;align=left;verticalAlign=top;spacingLeft=4;spacingRight=4;overflow=hidden;rotatable=0;points=[[0,0.5],[1,0.5]];portConstraint=eastwest;" vertex="1" parent="Bsu9NjQxNURBnWHIHruh-85">
          <mxGeometry y="60" width="60" height="26" as="geometry" />
        </mxCell>
        <mxCell id="Bsu9NjQxNURBnWHIHruh-90" value="+ disconnect_connection(engine):" style="text;strokeColor=none;fillColor=none;align=left;verticalAlign=top;spacingLeft=4;spacingRight=4;overflow=hidden;rotatable=0;points=[[0,0.5],[1,0.5]];portConstraint=eastwest;" vertex="1" parent="Bsu9NjQxNURBnWHIHruh-85">
          <mxGeometry y="86" width="60" height="26" as="geometry" />
        </mxCell>
        <mxCell id="Bsu9NjQxNURBnWHIHruh-91" value="+ execute(desc,query,engine):" style="text;strokeColor=none;fillColor=none;align=left;verticalAlign=top;spacingLeft=4;spacingRight=4;overflow=hidden;rotatable=0;points=[[0,0.5],[1,0.5]];portConstraint=eastwest;" vertex="1" parent="Bsu9NjQxNURBnWHIHruh-85">
          <mxGeometry y="112" width="60" height="26" as="geometry" />
        </mxCell>
        <mxCell id="Bsu9NjQxNURBnWHIHruh-138" value="" style="edgeStyle=orthogonalEdgeStyle;rounded=0;orthogonalLoop=1;jettySize=auto;html=1;startArrow=none;startFill=0;endArrow=classic;endFill=1;" edge="1" parent="WIyWlLk6GJQsqaUBKTNV-1" source="Bsu9NjQxNURBnWHIHruh-113" target="Bsu9NjQxNURBnWHIHruh-105">
          <mxGeometry relative="1" as="geometry" />
        </mxCell>
        <mxCell id="Bsu9NjQxNURBnWHIHruh-139" style="edgeStyle=orthogonalEdgeStyle;rounded=0;orthogonalLoop=1;jettySize=auto;html=1;startArrow=none;startFill=0;endArrow=classicThin;endFill=1;" edge="1" parent="WIyWlLk6GJQsqaUBKTNV-1" source="Bsu9NjQxNURBnWHIHruh-0" target="Bsu9NjQxNURBnWHIHruh-105">
          <mxGeometry relative="1" as="geometry">
            <Array as="points">
              <mxPoint x="75" y="245" />
            </Array>
          </mxGeometry>
        </mxCell>
        <mxCell id="Bsu9NjQxNURBnWHIHruh-140" style="edgeStyle=orthogonalEdgeStyle;rounded=0;orthogonalLoop=1;jettySize=auto;html=1;startArrow=none;startFill=0;endArrow=classic;endFill=1;" edge="1" parent="WIyWlLk6GJQsqaUBKTNV-1" source="Bsu9NjQxNURBnWHIHruh-85" target="Bsu9NjQxNURBnWHIHruh-105">
          <mxGeometry relative="1" as="geometry" />
        </mxCell>
        <mxCell id="Bsu9NjQxNURBnWHIHruh-141" style="edgeStyle=orthogonalEdgeStyle;rounded=0;orthogonalLoop=1;jettySize=auto;html=1;startArrow=none;startFill=0;endArrow=classic;endFill=1;" edge="1" parent="WIyWlLk6GJQsqaUBKTNV-1" source="Bsu9NjQxNURBnWHIHruh-111" target="Bsu9NjQxNURBnWHIHruh-105">
          <mxGeometry relative="1" as="geometry">
            <Array as="points">
              <mxPoint x="180" y="160" />
              <mxPoint x="180" y="160" />
            </Array>
          </mxGeometry>
        </mxCell>
        <mxCell id="Bsu9NjQxNURBnWHIHruh-163" style="edgeStyle=orthogonalEdgeStyle;rounded=0;orthogonalLoop=1;jettySize=auto;html=1;startArrow=none;startFill=0;endArrow=classic;endFill=1;" edge="1" parent="WIyWlLk6GJQsqaUBKTNV-1" source="Bsu9NjQxNURBnWHIHruh-5" target="Bsu9NjQxNURBnWHIHruh-105">
          <mxGeometry relative="1" as="geometry" />
        </mxCell>
        <mxCell id="Bsu9NjQxNURBnWHIHruh-105" value="main.py" style="html=1;" vertex="1" parent="WIyWlLk6GJQsqaUBKTNV-1">
          <mxGeometry x="140" y="220" width="110" height="50" as="geometry" />
        </mxCell>
        <mxCell id="Bsu9NjQxNURBnWHIHruh-160" style="edgeStyle=orthogonalEdgeStyle;rounded=0;orthogonalLoop=1;jettySize=auto;html=1;startArrow=classic;startFill=1;endArrow=none;endFill=0;" edge="1" parent="WIyWlLk6GJQsqaUBKTNV-1" source="Bsu9NjQxNURBnWHIHruh-60" target="Bsu9NjQxNURBnWHIHruh-108">
          <mxGeometry relative="1" as="geometry">
            <Array as="points">
              <mxPoint x="675" y="410" />
              <mxPoint x="385" y="410" />
            </Array>
          </mxGeometry>
        </mxCell>
        <mxCell id="Bsu9NjQxNURBnWHIHruh-108" value="sqlTemplates.py" style="html=1;" vertex="1" parent="WIyWlLk6GJQsqaUBKTNV-1">
          <mxGeometry x="330" y="316" width="110" height="50" as="geometry" />
        </mxCell>
        <mxCell id="Bsu9NjQxNURBnWHIHruh-111" value="constants.py" style="html=1;" vertex="1" parent="WIyWlLk6GJQsqaUBKTNV-1">
          <mxGeometry x="140" y="10" width="110" height="50" as="geometry" />
        </mxCell>
        <mxCell id="Bsu9NjQxNURBnWHIHruh-113" value="time" style="shape=folder;fontStyle=1;spacingTop=10;tabWidth=40;tabHeight=14;tabPosition=left;html=1;direction=east;" vertex="1" parent="WIyWlLk6GJQsqaUBKTNV-1">
          <mxGeometry x="175" y="336" width="40" height="30" as="geometry" />
        </mxCell>
        <mxCell id="Bsu9NjQxNURBnWHIHruh-115" value="sqlAlchemy" style="shape=folder;fontStyle=1;spacingTop=10;tabWidth=40;tabHeight=14;tabPosition=left;html=1;" vertex="1" parent="WIyWlLk6GJQsqaUBKTNV-1">
          <mxGeometry x="240" y="80" width="80" height="30" as="geometry" />
        </mxCell>
        <mxCell id="Bsu9NjQxNURBnWHIHruh-159" style="edgeStyle=orthogonalEdgeStyle;rounded=0;orthogonalLoop=1;jettySize=auto;html=1;startArrow=none;startFill=0;endArrow=classic;endFill=1;" edge="1" parent="WIyWlLk6GJQsqaUBKTNV-1" source="Bsu9NjQxNURBnWHIHruh-117" target="Bsu9NjQxNURBnWHIHruh-60">
          <mxGeometry relative="1" as="geometry" />
        </mxCell>
        <mxCell id="Bsu9NjQxNURBnWHIHruh-117" value="jinja2" style="shape=folder;fontStyle=1;spacingTop=10;tabWidth=40;tabHeight=14;tabPosition=left;html=1;" vertex="1" parent="WIyWlLk6GJQsqaUBKTNV-1">
          <mxGeometry x="360" y="80" width="50" height="30" as="geometry" />
        </mxCell>
        <mxCell id="Bsu9NjQxNURBnWHIHruh-119" value="plotnine" style="shape=folder;fontStyle=1;spacingTop=10;tabWidth=40;tabHeight=14;tabPosition=left;html=1;" vertex="1" parent="WIyWlLk6GJQsqaUBKTNV-1">
          <mxGeometry x="515" y="326" width="60" height="30" as="geometry" />
        </mxCell>
        <mxCell id="Bsu9NjQxNURBnWHIHruh-122" value="pandas" style="shape=folder;fontStyle=1;spacingTop=10;tabWidth=40;tabHeight=14;tabPosition=left;html=1;" vertex="1" parent="WIyWlLk6GJQsqaUBKTNV-1">
          <mxGeometry x="700" y="306" width="60" height="30" as="geometry" />
        </mxCell>
        <mxCell id="Bsu9NjQxNURBnWHIHruh-149" value="return" style="html=1;verticalAlign=bottom;endArrow=open;dashed=1;endSize=8;" edge="1" parent="WIyWlLk6GJQsqaUBKTNV-1" source="Bsu9NjQxNURBnWHIHruh-5" target="Bsu9NjQxNURBnWHIHruh-28">
          <mxGeometry relative="1" as="geometry">
            <mxPoint x="525" y="300" as="sourcePoint" />
            <mxPoint x="445" y="300" as="targetPoint" />
          </mxGeometry>
        </mxCell>
        <mxCell id="Bsu9NjQxNURBnWHIHruh-150" value="return" style="html=1;verticalAlign=bottom;endArrow=open;dashed=1;endSize=8;" edge="1" parent="WIyWlLk6GJQsqaUBKTNV-1" source="Bsu9NjQxNURBnWHIHruh-28" target="Bsu9NjQxNURBnWHIHruh-60">
          <mxGeometry relative="1" as="geometry">
            <mxPoint x="605" y="350.5" as="sourcePoint" />
            <mxPoint x="685" y="350.5" as="targetPoint" />
          </mxGeometry>
        </mxCell>
      </root>
    </mxGraphModel>
  </diagram>
</mxfile>
